<!DOCTYPE svg PUBLIC "-//W3C//DTD SVG 1.1//EN" "http://www.w3.org/Graphics/SVG/1.1/DTD/svg11.dtd">
<!-- Uploaded to: SVG Repo, www.svgrepo.com, Transformed by: SVG Repo Mixer Tools -->
<svg width="800px" height="800px" viewBox="0 0 24 24" version="1.1" xmlns="http://www.w3.org/2000/svg" xmlns:xlink="http://www.w3.org/1999/xlink" fill="#000000" transform="matrix(-1, 0, 0, -1, 0, 0)">
<g id="SVGRepo_bgCarrier" stroke-width="0"/>
<g id="SVGRepo_tracerCarrier" stroke-linecap="round" stroke-linejoin="round"/>
<g id="SVGRepo_iconCarrier"> <title>quote-right</title> <desc>Created with sketchtool.</desc> <g id="text-edit" stroke="none" stroke-width="1" fill="none" fill-rule="evenodd"> <g id="quote-right" fill="#fff"> <path d="M17,11 C14.790861,11 13,9.209139 13,7 C13,4.790861 14.790861,3 17,3 C19.209139,3 21,4.78999996 21,7 C21,8.47333336 19.6666667,13.14 17,21 L15,21 C16.3333333,14.3333333 17,11 17,11 Z M7,11 C4.790861,11 3,9.209139 3,7 C3,4.790861 4.790861,3 7,3 C9.209139,3 11,4.78999996 11,7 C11,8.47333336 9.66666667,13.14 7,21 L5,21 C6.33333333,14.3333333 7,11 7,11 Z" id="Shape"> </path> </g> </g> </g>
</svg>